HIERARCHY
ROOT Hips
{
	OFFSET -0.001795 -0.223333 0.028219
	CHANNELS 6 Xposition Yposition Zposition Zrotation Yrotation Xrotation 
	JOINT LeftUpLeg
	{
		OFFSET 0.069520 -0.091406 -0.006815
		CHANNELS 3 Zrotation Yrotation Xrotation
		JOINT LeftLeg
		{
			OFFSET 0.034277 -0.375199 -0.004496
			CHANNELS 3 Zrotation Yrotation Xrotation
			JOINT LeftFoot
			{
				OFFSET -0.013596 -0.397961 -0.043693
				CHANNELS 3 Zrotation Yrotation Xrotation
				JOINT LeftToe
				{
					OFFSET 0.026358 -0.055791 0.119288
					CHANNELS 3 Zrotation Yrotation Xrotation
					End Site
					{
						OFFSET 0.000000 0.000000 0.000000
					}
				}
			}
		}
	}
	JOINT RightUpLeg
	{
		OFFSET -0.067670 -0.090522 -0.004320
		CHANNELS 3 Zrotation Yrotation Xrotation
		JOINT RightLeg
		{
			OFFSET -0.038290 -0.382569 -0.008850
			CHANNELS 3 Zrotation Yrotation Xrotation
			JOINT RightFoot
			{
				OFFSET 0.015774 -0.398415 -0.042312
				CHANNELS 3 Zrotation Yrotation Xrotation
				JOINT RightToe
				{
					OFFSET -0.025372 -0.048144 0.123348
					CHANNELS 3 Zrotation Yrotation Xrotation
					End Site
					{
						OFFSET 0.000000 0.000000 0.000000
					}
				}
			}
		}
	}
	JOINT Spine
	{
		OFFSET -0.002533 0.108963 -0.026696
		CHANNELS 3 Zrotation Yrotation Xrotation
		JOINT Spine1
		{
			OFFSET 0.005487 0.135180 0.001092
			CHANNELS 3 Zrotation Yrotation Xrotation
			JOINT Spine2
			{
				OFFSET 0.001457 0.052922 0.025425
				CHANNELS 3 Zrotation Yrotation Xrotation
				JOINT Neck
				{
					OFFSET -0.002778 0.213870 -0.042857
					CHANNELS 3 Zrotation Yrotation Xrotation
					JOINT Head
					{
						OFFSET 0.005152 0.064970 0.051349
						CHANNELS 3 Zrotation Yrotation Xrotation
						End Site
						{
							OFFSET 0.000000 0.000000 0.000000
						}
					}
				}
				JOINT LeftShoulder
				{
					OFFSET 0.078845 0.121749 -0.034090
					CHANNELS 3 Zrotation Yrotation Xrotation
					JOINT LeftArm
					{
						OFFSET 0.090977 0.030469 -0.008868
						CHANNELS 3 Zrotation Yrotation Xrotation
						JOINT LeftForeArm
						{
							OFFSET 0.259612 -0.012772 -0.027456
							CHANNELS 3 Zrotation Yrotation Xrotation
							JOINT LeftHand
							{
								OFFSET 0.249234 0.008986 -0.001171
								CHANNELS 3 Zrotation Yrotation Xrotation
								End Site
								{
									OFFSET 0.000000 0.000000 0.000000
								}
							}
						}
					}
				}
				JOINT RightShoulder
				{
					OFFSET -0.081759 0.118833 -0.038615
					CHANNELS 3 Zrotation Yrotation Xrotation
					JOINT RightArm
					{
						OFFSET -0.096012 0.032551 -0.009143
						CHANNELS 3 Zrotation Yrotation Xrotation
						JOINT RightForeArm
						{
							OFFSET -0.253742 -0.013329 -0.021401
							CHANNELS 3 Zrotation Yrotation Xrotation
							JOINT RightHand
							{
								OFFSET -0.255298 0.007772 -0.005559
								CHANNELS 3 Zrotation Yrotation Xrotation
								End Site
								{
									OFFSET 0.000000 0.000000 0.000000
								}
							}
						}
					}
				}
			}
		}
	}
}
MOTION
Frames: 15
Frame Time: 0.050000
0.000000 0.959843 0.000000 -0.408459 -7.044607 -0.305964 2.383891 0.068624 0.814091 -2.539631 0.340941 -2.226494 0.885505 5.461552 12.811900 0.000000 0.000000 0.000000 -2.700102 0.166889 -0.917588 3.353831 -0.289420 0.798670 -1.239023 -7.929810 11.086647 0.000000 0.000000 0.000000 5.337667 -0.490569 5.418112 -5.096674 1.728609 -24.726324 -1.099905 7.373360 28.083822 9.656908 -2.872467 -30.181364 0.000000 0.000000 0.000000 -18.672347 -7.217934 2.241901 -46.352579 -5.935843 -5.394855 -17.729553 -31.094920 6.338627 0.000000 0.000000 0.000000 25.297839 -2.380204 -2.084118 49.552735 7.471348 -4.476234 20.628187 29.285212 6.793943 0.000000 0.000000 0.000000 
0.000149 0.959255 -0.000045 -0.436733 -7.603073 -0.001412 2.920652 0.091288 1.125438 -3.272925 0.425831 -2.620060 0.512229 4.578654 11.979714 0.000000 0.000000 0.000000 -3.011141 0.225132 -1.539393 3.584884 -0.297206 1.500881 -1.556230 -8.697644 11.420737 0.000000 0.000000 0.000000 5.395787 -0.459914 4.962614 -5.721925 1.867893 -24.790642 -0.645498 7.388475 28.259569 10.457970 -3.345128 -30.351131 0.000000 0.000000 0.000000 -18.701805 -7.635858 2.580498 -47.150631 -6.464899 -5.331264 -16.135092 -30.707501 5.853295 0.000000 0.000000 0.000000 25.413653 -2.307224 -2.162225 50.095458 6.734515 -4.787054 20.367960 29.726649 6.831422 0.000000 0.000000 0.000000 
0.000237 0.959090 -0.000383 -0.239376 -6.572095 0.116395 2.954533 0.017814 0.203958 -3.203940 0.402263 -0.744928 0.061723 3.631497 10.829832 0.000000 0.000000 0.000000 -3.072330 0.237864 -1.762925 3.437379 -0.283660 2.085305 -1.945764 -9.196310 11.072167 0.000000 0.000000 0.000000 5.862054 -0.433610 4.360043 -6.390925 2.053887 -24.363974 -1.077571 6.767202 28.273795 10.179039 -3.233681 -30.242273 0.000000 0.000000 0.000000 -18.553352 -8.633545 3.099700 -46.245094 -6.294684 -5.302473 -16.896363 -30.552486 5.997429 0.000000 0.000000 0.000000 25.945836 -2.276832 -2.156298 49.978468 6.711321 -4.815013 18.575732 29.375384 6.259566 0.000000 0.000000 0.000000 
0.000111 0.958980 -0.000720 -0.156890 -6.516509 0.041912 3.042766 0.027876 0.345189 -3.571140 0.446525 -1.122303 -0.579581 2.769250 11.599182 0.000000 0.000000 0.000000 -3.357860 0.246808 -1.798641 3.983287 -0.342109 2.048108 -2.338148 -10.133428 11.813588 0.000000 0.000000 0.000000 5.874098 -0.430343 4.328101 -6.499477 2.073661 -24.737206 -1.137463 7.219187 28.652952 11.038248 -3.561475 -30.752308 0.000000 0.000000 0.000000 -19.055654 -9.292783 3.339695 -45.672302 -6.562542 -5.151574 -16.443280 -30.928750 5.912470 0.000000 0.000000 0.000000 27.345468 -2.312585 -2.092977 48.931578 6.901135 -4.797000 18.494381 29.084580 6.196790 0.000000 0.000000 0.000000 
0.000004 0.958961 -0.001108 -0.182491 -6.671948 -0.133885 2.921401 0.019863 0.196139 -3.219822 0.404719 -0.558199 -0.226600 3.262361 11.307365 0.000000 0.000000 0.000000 -3.372367 0.253233 -1.893877 3.968480 -0.336361 2.345830 -2.312512 -10.085674 11.740889 0.000000 0.000000 0.000000 5.735355 -0.439790 4.544722 -6.283407 2.034652 -24.013106 -1.292673 7.155148 27.880603 10.794383 -3.580204 -29.821936 0.000000 0.000000 0.000000 -19.000211 -9.441594 3.426313 -45.850858 -6.534320 -5.108424 -16.388844 -31.411616 5.996883 0.000000 0.000000 0.000000 27.184697 -1.859625 -1.870697 49.098205 7.061233 -4.646554 18.091208 29.213210 6.095095 0.000000 0.000000 0.000000 
-0.000046 0.959031 -0.001553 -0.186776 -6.490819 -0.263253 3.018334 0.021748 0.222947 -3.424469 0.428330 -0.470586 -0.356059 3.111408 11.459669 0.000000 0.000000 0.000000 -3.338199 0.249568 -1.882359 4.157849 -0.358432 2.418088 -2.534567 -10.482297 11.786513 0.000000 0.000000 0.000000 5.654958 -0.447649 4.697296 -6.335212 2.046537 -24.252255 -1.238998 6.931178 28.184616 10.571317 -3.443206 -30.072777 0.000000 0.000000 0.000000 -19.045196 -10.010866 3.774036 -45.758640 -6.558257 -5.123462 -16.162054 -31.817668 6.022957 0.000000 0.000000 0.000000 27.163886 -1.160029 -1.438850 48.851429 7.296611 -4.561670 18.100945 29.098307 6.052560 0.000000 0.000000 0.000000 
-0.000093 0.958984 -0.002099 -0.153490 -6.611447 -0.415757 3.030014 0.034207 0.372915 -3.414322 0.428327 -0.537171 -0.347235 3.213294 11.809719 0.000000 0.000000 0.000000 -3.275299 0.240856 -1.781123 4.030049 -0.343173 2.453777 -2.417802 -10.241488 11.635828 0.000000 0.000000 0.000000 5.682132 -0.470641 4.989320 -6.241839 2.030425 -23.889195 -1.398827 6.801037 27.851207 10.675322 -3.527202 -30.036172 0.000000 0.000000 0.000000 -19.139203 -10.400731 4.025570 -45.832108 -6.752393 -5.039755 -15.860190 -31.754285 5.928929 0.000000 0.000000 0.000000 27.257920 -0.625678 -1.184032 48.766385 7.542003 -4.411288 17.913505 29.345047 6.035844 0.000000 0.000000 0.000000 
-0.000156 0.958702 -0.002595 -0.252906 -6.541031 -0.551331 3.119660 0.049132 0.578203 -3.485865 0.436745 -0.609079 -0.422665 3.043834 11.620411 0.000000 0.000000 0.000000 -3.058392 0.230218 -1.720514 3.873878 -0.325736 2.584900 -2.376963 -10.104700 11.446008 0.000000 0.000000 0.000000 5.546237 -0.491796 5.338856 -5.959382 1.962170 -23.855808 -1.470477 6.656285 27.800574 10.566888 -3.524927 -29.775202 0.000000 0.000000 0.000000 -19.117133 -10.886938 4.310868 -45.716277 -6.716760 -5.040808 -15.792174 -31.894603 5.938058 0.000000 0.000000 0.000000 27.182103 -0.472681 -1.117840 48.602513 7.521360 -4.391266 18.418135 29.572807 6.210973 0.000000 0.000000 0.000000 
-0.000277 0.958562 -0.002993 -0.301751 -6.666518 -0.767768 3.126389 0.074316 0.902725 -3.476416 0.437139 -0.823847 -0.302447 3.287528 11.807112 0.000000 0.000000 0.000000 -2.945898 0.210336 -1.488028 3.868097 -0.324968 2.515895 -2.240747 -9.912034 11.598327 0.000000 0.000000 0.000000 5.543761 -0.514487 5.661660 -5.830401 1.929868 -23.780572 -1.507083 6.521902 27.684763 10.650093 -3.615064 -29.690762 0.000000 0.000000 0.000000 -19.343147 -11.153632 4.511027 -45.551273 -6.692085 -5.032718 -15.780851 -31.780819 5.916944 0.000000 0.000000 0.000000 27.241404 -0.140071 -0.989908 48.033660 7.429749 -4.361598 18.795051 30.341584 6.469087 0.000000 0.000000 0.000000 
-0.000388 0.958579 -0.003248 -0.340827 -6.644451 -0.953302 3.077418 0.088856 1.089701 -3.321288 0.418657 -0.891746 -0.247085 3.405636 11.881031 0.000000 0.000000 0.000000 -2.824929 0.194419 -1.325859 3.772927 -0.317480 2.313225 -2.119203 -9.749793 11.811857 0.000000 0.000000 0.000000 5.464388 -0.529530 5.927223 -5.656273 1.887617 -23.643721 -1.584638 6.417929 27.467920 10.670425 -3.639688 -29.631141 0.000000 0.000000 0.000000 -19.196877 -11.509081 4.710121 -45.588402 -6.525280 -5.078107 -15.802401 -31.724068 5.908793 0.000000 0.000000 0.000000 27.253038 -0.045231 -0.964355 47.790918 6.985469 -4.485245 19.435527 30.844485 6.758951 0.000000 0.000000 0.000000 
-0.000461 0.958793 -0.003396 -0.399607 -6.619752 -1.081154 3.214208 0.096984 1.201199 -3.214246 0.405777 -0.889754 -0.317069 3.343559 12.058569 0.000000 0.000000 0.000000 -2.741878 0.183933 -1.222451 3.712571 -0.312059 2.258586 -2.110454 -9.805303 12.068076 0.000000 0.000000 0.000000 5.435085 -0.536104 6.050965 -5.598560 1.875458 -23.552935 -1.570479 6.336742 27.497469 10.709676 -3.679628 -29.609610 0.000000 0.000000 0.000000 -19.287319 -11.645260 4.803628 -45.328399 -6.231282 -5.163661 -15.590654 -31.589422 5.815880 0.000000 0.000000 0.000000 27.311033 -0.124744 -1.041021 47.336852 6.473838 -4.644654 20.050107 31.142937 6.993772 0.000000 0.000000 0.000000 
-0.000465 0.958913 -0.003445 -0.532924 -6.616613 -1.052425 3.370500 0.092940 1.154836 -3.105012 0.392685 -0.906080 -0.399617 3.275036 12.299793 0.000000 0.000000 0.000000 -2.753087 0.184828 -1.230275 3.687456 -0.310397 2.185124 -2.041162 -9.733173 12.252491 0.000000 0.000000 0.000000 5.599794 -0.536854 5.948977 -5.474737 1.847930 -23.297376 -1.742336 6.343347 27.366101 10.781027 -3.664242 -29.849772 0.000000 0.000000 0.000000 -18.996450 -11.556131 4.736023 -45.424189 -5.593171 -5.382828 -15.332687 -31.491018 5.717884 0.000000 0.000000 0.000000 27.173167 -0.346306 -1.175166 47.001056 5.819404 -4.843348 21.145347 31.611554 7.426413 0.000000 0.000000 0.000000 
-0.000433 0.959148 -0.003538 -0.686191 -6.791583 -1.044282 3.493108 0.089007 1.080509 -3.028805 0.383971 -0.773530 -0.349158 3.347692 12.333293 0.000000 0.000000 0.000000 -2.609141 0.176170 -1.152574 3.578671 -0.300359 1.934943 -1.862041 -9.488702 12.454620 0.000000 0.000000 0.000000 5.606689 -0.539462 5.979300 -5.343441 1.812300 -23.189487 -1.688283 6.493781 27.349939 10.872893 -3.688923 -29.958556 0.000000 0.000000 0.000000 -19.269138 -11.506288 4.704727 -45.005842 -4.998406 -5.537696 -14.831121 -31.315607 5.526968 0.000000 0.000000 0.000000 27.318105 -0.523823 -1.283454 46.318065 4.946532 -5.109009 22.128624 32.011870 7.812887 0.000000 0.000000 0.000000 
-0.000385 0.959316 -0.003731 -0.791989 -6.912524 -0.996053 3.638789 0.081131 0.954154 -2.890951 0.367913 -0.755972 -0.387813 3.285671 12.395805 0.000000 0.000000 0.000000 -2.514819 0.182298 -1.259334 3.515569 -0.291546 2.014046 -1.688135 -9.112905 12.207712 0.000000 0.000000 0.000000 5.673635 -0.547037 6.023282 -5.278585 1.793266 -23.189777 -1.682559 6.513122 27.283219 10.914362 -3.723982 -29.903490 0.000000 0.000000 0.000000 -19.257871 -11.170665 4.536139 -44.989149 -4.366951 -5.752645 -14.660221 -30.961214 5.412868 0.000000 0.000000 0.000000 27.222855 -0.695773 -1.409457 45.748101 4.439063 -5.226704 23.039131 32.282338 8.144286 0.000000 0.000000 0.000000 
-0.000308 0.959403 -0.003990 -0.930818 -7.015068 -0.831796 3.689216 0.067068 0.747080 -2.730360 0.348372 -0.692190 -0.435544 3.222108 12.503517 0.000000 0.000000 0.000000 -2.446360 0.198587 -1.484570 3.493970 -0.288307 2.006315 -1.669034 -9.121417 12.306493 0.000000 0.000000 0.000000 5.833545 -0.546991 5.893984 -5.358630 1.809520 -23.327021 -1.517147 6.820813 27.412938 10.814230 -3.650328 -29.795024 0.000000 0.000000 0.000000 -19.308906 -10.764853 4.256890 -44.909844 -3.857763 -5.913284 -14.626577 -30.552428 5.312794 0.000000 0.000000 0.000000 27.018235 -1.064578 -1.540639 45.355125 4.062685 -5.354647 24.433027 32.472933 8.640628 0.000000 0.000000 0.000000 
